# xmcd CD database file generated by Grip 3.2.0
# 
# Track frame offsets:
#       150
#       10730
#       23902
#       38630
#       51337
#       66880
#       77777
#       90375
#       103635
#       116065
#       129050
#       141875
#       167635
#       182187
#       196457
#       212177
#       223392
#       235467
#       250445
#       265335
#       291320
# 
# Disc length: 4440 seconds
# 
# Revision: 1
# Processed by: cddbd v1.5.1PL2 Copyright (c) Steve Scherf et al.
# Submitted via: Grip 3.2.0
# 
DISCID=3d115615
DTITLE=Various Artist - Ska Heroes CD 1
DYEAR=2003
DGENRE=Ska
TTITLE0=Madness - One step beyond
TTITLE1=The Specials  - A message to you Rudy
TTITLE2=The Selecter - On my radio
TTITLE3=The Beat - Ranking full stop
TTITLE4=The Clash - Pressure drop
TTITLE5=Desmond Dekker and The Specials - Jamaican Ska
TTITLE6=The Specials - Gangsters
TTITLE7=Bodysnatchers - People do rocksteady
TTITLE8=Judge Dread - Big Six
TTITLE9=The Skatelites - Lucky seven
TTITLE10=The selecter - Too much pressure
TTITLE11=Rhoda Dakar and The Specials Aka - The boiler
TTITLE12=Graduate - Elvis should play Ska
TTITLE13=The Specials - Rat Race
TTITLE14=Dexys Midnight Runners - Geno
TTITLE15=Madness - Baggy trousers
TTITLE16=The Specials - Skinhead moonstomp (live)
TTITLE17=Jim Murple Memorial  - Promised Land (live)
TTITLE18=Aspo - Christine Keeler
TTITLE19=Fun Boy Three Feat. Neville Staple - It's you
TTITLE20=DATA
EXTD=
EXTT0=
EXTT1=
EXTT2=
EXTT3=
EXTT4=
EXTT5=
EXTT6=
EXTT7=
EXTT8=
EXTT9=
EXTT10=
EXTT11=
EXTT12=
EXTT13=
EXTT14=
EXTT15=
EXTT16=
EXTT17=
EXTT18=
EXTT19=
EXTT20=
PLAYORDER=
